<?xml version="1.0"?>
<svg xmlns="http://www.w3.org/2000/svg" xmlns:xlink="http://www.w3.org/1999/xlink" xmlns:svgjs="http://svgjs.com/svgjs" version="1.1" width="512" height="512" x="0" y="0" viewBox="0 0 512.00117 512" style="enable-background:new 0 0 512 512" xml:space="preserve" class=""><g transform="matrix(0.7999999999999999,0,0,0.7999999999999999,51.20032596588135,51.1953125)"><path xmlns="http://www.w3.org/2000/svg" d="m428.417969 272.457031 69.648437-50.371093c11.992188-8.671876 16.796875-23.375 12.238282-37.457032-4.558594-14.082031-17.066407-23.179687-31.867188-23.179687h-145.875l-44.691406-138.253907c-4.554688-14.089843-17.0625-23.195312-31.871094-23.195312-14.804688 0-27.316406 9.105469-31.871094 23.195312l-44.691406 138.253907h-35.425781c-5.523438 0-10 4.476562-10 10 0 5.523437 4.476562 10 10 10h42.703125c4.335937 0 8.179687-2.796875 9.515625-6.925781l46.925781-145.179688c2.230469-6.890625 8.097656-9.34375 12.84375-9.34375 4.75 0 10.617188 2.453125 12.84375 9.34375l46.929688 145.179688c1.332031 4.128906 5.175781 6.925781 9.511718 6.925781h153.152344c7.238281 0 11.378906 4.824219 12.839844 9.339843 1.464844 4.515626.933594 10.851563-4.929688 15.089844l-84.085937 60.8125c-4.363281-.46875-8.789063-.714844-13.273438-.714844-64.910156 0-118.230469 50.546876-122.679687 114.347657l-4.410156-3.21875c-3.515626-2.5625-8.277344-2.5625-11.792969 0l-123.484375 90.132812c-5.851563 4.269531-12.046875 2.808594-15.890625.015625-3.84375-2.792968-7.148438-8.230468-4.894531-15.117187l47.558593-145.292969c1.355469-4.132812-.117187-8.667969-3.640625-11.214844l-124.097656-89.746094c-5.867188-4.242187-6.394531-10.578124-4.933594-15.09375 1.460938-4.515624 5.601563-9.339843 12.839844-9.339843h30.457031c5.519531 0 9.996094-4.476563 9.996094-10 0-5.523438-4.476563-10-9.996094-10h-30.457031c-14.796875 0-27.304688 9.097656-31.863281 23.179687-4.558594 14.082032.242187 28.785156 12.234375 37.457032l118.183594 85.472656-45.285157 138.355468c-4.609375 14.082032.15625 28.808594 12.144531 37.519532 5.980469 4.347656 12.835938 6.519531 19.6875 6.519531 6.875 0 13.753907-2.1875 19.746094-6.5625l117.589844-85.828125 11.140625 8.132812c8.1875 59.929688 59.707031 106.257813 121.847656 106.257813 67.816407 0 122.988281-55.171875 122.988281-122.988281 0-54.03125-35.023437-100.039063-83.558593-116.507813zm-39.429688 219.496094c-56.789062 0-102.992187-46.199219-102.992187-102.988281 0-56.789063 46.203125-102.992188 102.992187-102.992188 56.789063 0 102.988281 46.203125 102.988281 102.992188 0 56.789062-46.199218 102.988281-102.988281 102.988281zm0 0" fill="#ffffffb3" data-original="#000000" style="" class=""/><path xmlns="http://www.w3.org/2000/svg" d="m448.984375 358.96875h-30v-30c0-5.523438-4.476563-10-10-10h-39.996094c-5.519531 0-9.996093 4.476562-9.996093 10v30h-30c-5.519532 0-9.996094 4.476562-9.996094 9.996094v39.996094c0 5.523437 4.476562 10 9.996094 10h30v29.996093c0 5.523438 4.476562 10 9.996093 10h39.996094c5.523437 0 10-4.476562 10-10v-29.996093h30c5.519531 0 9.996094-4.476563 9.996094-10v-39.996094c0-5.519532-4.476563-9.996094-9.996094-9.996094zm-10 39.996094h-30c-5.519531 0-9.996094 4.476562-9.996094 9.996094v30h-20v-30c0-5.519532-4.476562-9.996094-10-9.996094h-29.996093v-20h29.996093c5.523438 0 10-4.476563 10-10v-29.996094h20v29.996094c0 5.523437 4.476563 10 9.996094 10h30zm0 0" fill="#ffffffb3" data-original="#000000" style="" class=""/><path xmlns="http://www.w3.org/2000/svg" d="m104.015625 181.484375c2.628906 0 5.207031-1.0625 7.070313-2.929687 1.859374-1.859376 2.929687-4.429688 2.929687-7.070313 0-2.628906-1.070313-5.210937-2.929687-7.070313-1.863282-1.859374-4.441407-2.929687-7.070313-2.929687s-5.210937 1.070313-7.070313 2.929687c-1.859374 1.859376-2.929687 4.441407-2.929687 7.070313s1.070313 5.210937 2.929687 7.070313c1.859376 1.867187 4.441407 2.929687 7.070313 2.929687zm0 0" fill="#ffffffb3" data-original="#000000" style="" class=""/></g></svg>
